<?xml version="1.0" standalone="no"?>
<!DOCTYPE svg PUBLIC "-//W3C//DTD SVG 20010904//EN"
 "http://www.w3.org/TR/2001/REC-SVG-20010904/DTD/svg10.dtd">
<svg version="1.0" xmlns="http://www.w3.org/2000/svg"
 width="1280.000000pt" height="699.000000pt" viewBox="0 0 1280.000000 699.000000"
 preserveAspectRatio="xMidYMid meet">
<metadata>
Created by potrace 1.15, written by Peter Selinger 2001-2017
</metadata>
<g transform="translate(0.000000,699.000000) scale(0.100000,-0.100000)"
fill="#000000" stroke="none">
<path d="M6137 6953 c-164 -87 -238 -232 -239 -463 0 -174 24 -303 124 -665
65 -237 94 -357 108 -450 11 -71 10 -78 -12 -123 -35 -71 -33 -187 5 -264 48
-98 122 -148 177 -118 29 16 53 92 53 173 1 76 -22 176 -123 547 -28 102 -62
237 -76 300 -91 415 -66 725 81 971 l44 74 -32 28 c-17 15 -34 27 -37 27 -3 0
-36 -17 -73 -37z"/>
<path d="M9295 6941 c-73 -26 -105 -44 -157 -90 -82 -73 -106 -156 -72 -252
l17 -46 -90 -169 c-50 -93 -132 -252 -183 -354 -328 -656 -581 -976 -942
-1190 l-77 -46 34 -13 c93 -33 217 -18 327 41 99 53 282 263 453 523 127 192
189 303 398 715 250 493 322 624 388 700 88 103 107 151 71 183 -25 23 -103
21 -167 -2z"/>
<path d="M1467 6148 c-26 -103 -12 -224 39 -341 24 -52 56 -91 204 -242 209
-214 275 -291 575 -665 471 -588 662 -793 926 -995 92 -71 100 -75 149 -75 66
0 110 22 110 56 0 53 -106 143 -416 352 -83 56 -159 112 -170 125 -11 12 -37
65 -57 118 -41 104 -117 240 -199 353 -101 140 -206 255 -488 536 -379 379
-500 519 -617 717 -25 43 -46 79 -48 81 -1 2 -5 -8 -8 -20z"/>
<path d="M3915 6085 c-5 -1 -36 -8 -67 -15 -32 -7 -58 -16 -57 -19 0 -3 25
-26 56 -50 85 -68 177 -190 243 -326 64 -132 102 -244 180 -529 99 -360 171
-538 278 -682 53 -73 175 -194 193 -194 14 0 22 71 16 144 -12 133 -79 292
-167 392 -108 123 -151 253 -220 654 -60 358 -92 452 -186 547 -38 38 -65 55
-104 67 -47 14 -136 20 -165 11z"/>
<path d="M11560 4944 c-118 -85 -346 -198 -700 -349 -445 -189 -629 -286 -805
-424 -92 -72 -230 -212 -279 -284 l-40 -58 22 -22 c27 -26 94 -30 136 -8 15 8
47 42 71 76 133 186 318 300 740 453 363 132 468 179 595 265 67 46 177 154
220 217 44 65 94 160 83 160 -5 -1 -24 -12 -43 -26z"/>
<path d="M6125 4438 c-542 -47 -1081 -214 -1528 -472 -111 -64 -477 -304 -587
-385 -472 -346 -879 -799 -1155 -1286 -317 -558 -467 -1172 -426 -1743 7 -90
16 -173 20 -185 4 -12 10 56 14 159 25 743 323 1503 845 2156 59 73 192 219
296 323 189 190 192 191 38 9 -263 -312 -484 -713 -615 -1119 -139 -428 -186
-870 -136 -1293 9 -74 15 -102 24 -98 7 2 64 16 126 30 326 73 589 77 1239 22
573 -48 687 -55 1100 -62 597 -11 964 9 2515 141 899 76 1395 101 1795 91 146
-3 302 -9 348 -12 l82 -7 1 59 c1 47 3 54 10 34 13 -38 1 292 -16 417 -93 693
-417 1367 -949 1968 -421 477 -681 688 -1116 904 -388 193 -778 302 -1240 346
-159 16 -525 18 -685 3z"/>
<path d="M399 3564 c-42 -7 -109 -25 -150 -40 -77 -27 -229 -103 -229 -114 0
-11 156 -30 260 -32 52 -1 217 1 365 6 l270 8 195 -70 c107 -38 314 -115 460
-170 475 -178 779 -270 1037 -311 205 -34 193 -33 203 -5 24 63 5 129 -50 172
-100 78 -281 127 -640 172 -157 20 -237 43 -525 155 -156 60 -444 157 -550
185 -227 59 -473 76 -646 44z"/>
<path d="M12715 2263 c-152 -51 -245 -65 -500 -70 -199 -4 -287 -1 -515 18
-342 29 -704 32 -850 6 -125 -21 -249 -58 -341 -100 -83 -38 -209 -114 -209
-127 0 -12 131 -40 188 -40 75 0 193 25 350 75 334 105 398 107 887 23 226
-39 252 -41 445 -42 200 -1 207 0 285 27 86 30 154 69 222 124 43 35 119 121
112 127 -2 2 -35 -7 -74 -21z"/>
<path d="M520 1454 c-142 -26 -268 -71 -352 -128 -62 -41 -158 -124 -158 -136
0 -4 39 3 86 16 204 56 318 68 614 68 209 0 306 -4 405 -18 164 -22 391 -67
562 -112 213 -55 362 -44 399 28 21 41 11 78 -37 131 -51 59 -111 93 -196 113
-75 17 -129 13 -207 -16 -57 -22 -135 -18 -466 26 -144 19 -251 27 -410 29
-118 2 -226 1 -240 -1z"/>
<path d="M9460 510 c-135 -5 -459 -20 -720 -34 -261 -14 -619 -30 -795 -36
-501 -15 -573 -18 -680 -30 -226 -23 -797 -52 -1260 -64 -82 -2 -229 -13 -325
-24 -307 -37 -420 -42 -1165 -53 -892 -14 -1500 -13 -2125 0 -797 18 -1572 11
-1845 -17 l-70 -7 140 -27 c816 -158 1754 -229 2820 -214 827 11 1214 33 3310
186 683 50 1279 83 1795 101 375 13 1394 7 1660 -10 680 -43 1177 -104 1718
-212 112 -22 206 -39 208 -36 9 9 -344 178 -464 222 -361 134 -770 214 -1242
244 -234 15 -685 20 -960 11z"/>
</g>
</svg>
